<svg height="1026" viewBox="0 0 1026 1026" width="1026" xmlns="http://www.w3.org/2000/svg" xmlns:xlink="http://www.w3.org/1999/xlink"><linearGradient id="a" x1="27.547471%" x2="78.615383%" y1="5.201963%" y2="91.100477%"><stop offset="0" stop-color="#fff"/><stop offset="1" stop-color="#e2e2e2"/></linearGradient><linearGradient id="b" x1="21.926541%" x2="80.090332%" y1="8.426921%" y2="88.632541%"><stop offset="0" stop-color="#f50075" stop-opacity=".517012"/><stop offset="1" stop-color="#f50075"/></linearGradient><g fill="none" fill-rule="evenodd"><g stroke-width=".5" transform="translate(1 1)"><path d="m512 1024c282.769806 0 512-229.230194 512-512s-229.230194-512-512-512-512 229.230194-512 512 229.230194 512 512 512z" fill="url(#a)" stroke="#3b3b3b"/><circle cx="512" cy="512" fill="url(#b)" r="460.8" stroke="#afacac"/></g><g fill="#e10055" fill-opacity=".05" stroke="#fff" stroke-width="5" transform="translate(148 148)"><path d="m359.763196 654.393312c97.693702 5.579891 179.655694-119.429798 183.067233-279.216954 3.41154-159.787156-73.019254-293.8436341-170.712956-299.4235245-97.693702-5.5798905-179.655694 119.4297975-183.067233 279.2169545-3.411539 159.787156 73.019255 293.843634 170.712956 299.423524z" transform="matrix(.9612617 .27563736 -.27563736 .9612617 114.803684 -86.724515)"/><path d="m361.570984 654.268527c65.405105 5.579891 120.277964-119.429798 122.561961-279.216954 2.283996-159.787156-48.885772-293.8436344-114.290878-299.4235249-65.405105-5.5798904-120.277964 119.4297979-122.561961 279.2169539-2.283996 159.787156 48.885772 293.843635 114.290878 299.423525z" transform="matrix(.9612617 .27563736 -.27563736 .9612617 114.760232 -86.664902)"/><path d="m364.452408 654.868104c32.564568 5.579891 59.885232-119.429798 61.022411-279.216954 1.13718-159.787156-24.339751-293.8436341-56.904318-299.4235245-32.564568-5.5798905-59.885232 119.4297975-61.022411 279.2169545-1.13718 159.787156 24.339751 293.843634 56.904318 299.423524z" transform="matrix(.9612617 .27563736 -.27563736 .9612617 114.956679 -86.863544)"/><path d="m366.081998 655.153517c9.10704 5.57989 16.747564-119.429798 17.065589-279.216954s-6.80688-293.8436347-15.91392-299.4235251c-9.10704-5.5798905-16.747564 119.4297981-17.065589 279.2169541s6.80688 293.843634 15.91392 299.423525z" transform="matrix(.9612617 .27563736 -.27563736 .9612617 115.04102 -86.892835)"/><path d="m357.344953 653.931554c130.810211 5.57989 240.555929-119.429798 245.123922-279.216954s-97.771544-293.8436347-228.581755-299.4235252c-130.810211-5.5798904-240.555929 119.4297982-245.123922 279.2169542s97.771544 293.843634 228.581755 299.423525z" transform="matrix(.9612617 .27563736 -.27563736 .9612617 114.663844 -86.653013)"/><circle cx="364.791281" cy="364.791281" r="289.5" transform="matrix(.95105652 .30901699 -.30901699 .95105652 130.580861 -94.872549)"/><circle cx="364.791281" cy="364.791281" r="289.5" transform="matrix(.95105652 .30901699 -.30901699 .95105652 130.580861 -94.872549)"/><path d="m358.895935 654.260574c97.693701 5.579891 179.655693-119.429798 183.067233-279.216954 3.411539-159.787156-73.019255-293.8436344-170.712957-299.4235248-97.693701-5.5798904-179.655693 119.4297978-183.067233 279.2169538-3.411539 159.787156 73.019255 293.843635 170.712957 299.423525z" transform="matrix(-.27563736 .9612617 -.9612617 -.27563736 816.504015 114.600763)"/><path d="m361.812746 655.026765c65.405105 5.57989 120.277964-119.429798 122.561961-279.216954s-48.885772-293.8436346-114.290878-299.423525c-65.405105-5.5798905-120.277964 119.429798-122.561961 279.216954-2.283996 159.787156 48.885773 293.843635 114.290878 299.423525z" transform="matrix(-.27563736 .9612617 -.9612617 -.27563736 818.356981 114.736833)"/><path d="m363.488819 655.831694c32.564567 5.579891 59.885231-119.429798 61.022411-279.216954s-24.339752-293.8436345-56.904319-299.4235249c-32.564567-5.5798905-59.885231 119.4297979-61.022411 279.2169539s24.339752 293.843635 56.904319 299.423525z" transform="matrix(-.27563736 .9612617 -.9612617 -.27563736 818.619935 116.148543)"/><path d="m364.257442 655.978072c9.10704 5.57989 16.747565-119.429798 17.06559-279.216954s-6.80688-293.8436346-15.91392-299.423525-16.747564 119.429798-17.065589 279.216954 6.806879 293.843635 15.913919 299.423525z" transform="matrix(-.27563736 .9612617 -.9612617 -.27563736 817.849086 117.022173)"/><path d="m357.340231 653.936276c130.810211 5.57989 240.555929-119.429798 245.123922-279.216954s-97.771545-293.8436346-228.581755-299.423525c-130.810211-5.5798905-240.555929 119.429798-245.123922 279.216954s97.771544 293.843634 228.581755 299.423525z" transform="matrix(-.27563736 .9612617 -.9612617 -.27563736 816.878879 113.669684)"/><g transform="matrix(-.30901699 .95105652 -.95105652 -.30901699 824.455111 130.580861)"><circle cx="364.791281" cy="364.791281" r="289.5"/><circle cx="364.791281" cy="364.791281" r="289.5"/></g></g></g></svg>