<?xml version="1.0" encoding="UTF-8"?>
<svg width="1026px" height="1026px" viewBox="0 0 1026 1026" version="1.1" xmlns="http://www.w3.org/2000/svg" xmlns:xlink="http://www.w3.org/1999/xlink">
    <!-- Generator: Sketch 49 (51002) - http://www.bohemiancoding.com/sketch -->
    <title>video_party_app</title>
    <desc>Created with Sketch.</desc>
    <defs>
        <linearGradient x1="27.5474713%" y1="5.20196306%" x2="78.6153834%" y2="91.100477%" id="linearGradient-1">
            <stop stop-color="#FFFFFF" offset="0%"></stop>
            <stop stop-color="#E2E2E2" offset="100%"></stop>
        </linearGradient>
        <linearGradient x1="21.9265408%" y1="8.42692057%" x2="80.090332%" y2="88.6325412%" id="linearGradient-2">
            <stop stop-color="#F50075" stop-opacity="0.517012002" offset="0%"></stop>
            <stop stop-color="#F50075" offset="100%"></stop>
        </linearGradient>
    </defs>
    <g id="Page-1" stroke="none" stroke-width="1" fill="none" fill-rule="evenodd">
        <g id="video_party_app" transform="translate(1.000000, 1.000000)">
            <g id="logpile" stroke-width="0.5">
                <g id="Oval-3-+-Oval-6-+-Oval-4">
                    <path d="M512,1024 C794.769806,1024 1024,794.769806 1024,512 C1024,229.230194 794.769806,0 512,0 C229.230194,0 0,229.230194 0,512 C0,794.769806 229.230194,1024 512,1024 Z" id="Oval-6" stroke="#3B3B3B" fill="url(#linearGradient-1)"></path>
                    <circle id="Oval-4" stroke="#AFACAC" fill="url(#linearGradient-2)" cx="512" cy="512" r="460.8"></circle>
                </g>
            </g>
            <g id="Group" transform="translate(147.000000, 147.000000)" fill="#E10055" fill-opacity="0.05" stroke="#FFFFFF" stroke-width="5">
                <path d="M359.763196,654.393312 C457.456898,659.973203 539.41889,534.963514 542.830429,375.176358 C546.241969,215.389202 469.811175,81.3327239 372.117473,75.7528335 C274.423771,70.172943 192.461779,195.182631 189.05024,354.969788 C185.638701,514.756944 262.069495,648.813422 359.763196,654.393312 Z" id="Oval" transform="translate(365.940335, 365.073073) rotate(16.000000) translate(-365.940335, -365.073073) "></path>
                <path d="M361.570984,654.268527 C426.976089,659.848418 481.848948,534.838729 484.132945,375.051573 C486.416941,215.264417 435.247173,81.2079386 369.842067,75.6280481 C304.436962,70.0481577 249.564103,195.057846 247.280106,354.845002 C244.99611,514.632158 296.165878,648.688637 361.570984,654.268527 Z" id="Oval" transform="translate(365.706525, 364.948288) rotate(16.000000) translate(-365.706525, -364.948288) "></path>
                <path d="M364.452408,654.868104 C397.016976,660.447995 424.33764,535.438306 425.474819,375.65115 C426.611999,215.863994 401.135068,81.8075159 368.570501,76.2276255 C336.005933,70.647735 308.685269,195.657423 307.54809,355.44458 C306.41091,515.231736 331.887841,649.288214 364.452408,654.868104 Z" id="Oval" transform="translate(366.511455, 365.547865) rotate(16.000000) translate(-366.511455, -365.547865) "></path>
                <path d="M366.081998,655.153517 C375.189038,660.733407 382.829562,535.723719 383.147587,375.936563 C383.465612,216.149407 376.340707,82.0929283 367.233667,76.5130379 C358.126627,70.9331474 350.486103,195.942836 350.168078,355.729992 C349.850053,515.517148 356.974958,649.573626 366.081998,655.153517 Z" id="Oval" transform="translate(366.657832, 365.833277) rotate(16.000000) translate(-366.657832, -365.833277) "></path>
                <path d="M357.344953,653.931554 C488.155164,659.511444 597.900882,534.501756 602.468875,374.7146 C607.036868,214.927444 504.697331,80.8709653 373.88712,75.2910748 C243.076909,69.7111844 133.331191,194.720873 128.763198,354.508029 C124.195205,514.295185 226.534742,648.351663 357.344953,653.931554 Z" id="Oval" transform="translate(365.616036, 364.611314) rotate(16.000000) translate(-365.616036, -364.611314) "></path>
                <circle id="Oval" transform="translate(364.791281, 364.791281) rotate(18.000000) translate(-364.791281, -364.791281) " cx="364.791281" cy="364.791281" r="289.5"></circle>
                <circle id="Oval" transform="translate(364.791281, 364.791281) rotate(18.000000) translate(-364.791281, -364.791281) " cx="364.791281" cy="364.791281" r="289.5"></circle>
                <path d="M358.895935,654.260574 C456.589636,659.840465 538.551628,534.830776 541.963168,375.04362 C545.374707,215.256464 468.943913,81.1999856 371.250211,75.6200952 C273.55651,70.0402048 191.594518,195.049893 188.182978,354.837049 C184.771439,514.624205 261.202233,648.680684 358.895935,654.260574 Z" id="Oval" transform="translate(365.073073, 364.940335) rotate(106.000000) translate(-365.073073, -364.940335) "></path>
                <path d="M361.812746,655.026765 C427.217851,660.606655 482.09071,535.596967 484.374707,375.809811 C486.658704,216.022655 435.488935,81.9661764 370.083829,76.386286 C304.678724,70.8063955 249.805865,195.816084 247.521868,355.60324 C245.237872,515.390396 296.407641,649.446875 361.812746,655.026765 Z" id="Oval" transform="translate(365.948288, 365.706525) rotate(106.000000) translate(-365.948288, -365.706525) "></path>
                <path d="M363.488819,655.831694 C396.053386,661.411585 423.37405,536.401896 424.51123,376.61474 C425.64841,216.827584 400.171478,82.7711055 367.606911,77.1912151 C335.042344,71.6113246 307.72168,196.621013 306.5845,356.408169 C305.44732,516.195325 330.924252,650.251804 363.488819,655.831694 Z" id="Oval" transform="translate(365.547865, 366.511455) rotate(106.000000) translate(-365.547865, -366.511455) "></path>
                <path d="M364.257442,655.978072 C373.364482,661.557962 381.005007,536.548274 381.323032,376.761118 C381.641057,216.973962 374.516152,82.9174834 365.409112,77.337593 C356.302072,71.7577026 348.661548,196.767391 348.343523,356.554547 C348.025498,516.341703 355.150402,650.398182 364.257442,655.978072 Z" id="Oval" transform="translate(364.833277, 366.657832) rotate(106.000000) translate(-364.833277, -366.657832) "></path>
                <path d="M357.340231,653.936276 C488.150442,659.516166 597.89616,534.506478 602.464153,374.719322 C607.032146,214.932166 504.692608,80.8756874 373.882398,75.295797 C243.072187,69.7159065 133.326469,194.725595 128.758476,354.512751 C124.190483,514.299907 226.53002,648.356385 357.340231,653.936276 Z" id="Oval" transform="translate(365.611314, 364.616036) rotate(106.000000) translate(-365.611314, -364.616036) "></path>
                <circle id="Oval" transform="translate(364.791281, 364.791281) rotate(108.000000) translate(-364.791281, -364.791281) " cx="364.791281" cy="364.791281" r="289.5"></circle>
                <circle id="Oval" transform="translate(364.791281, 364.791281) rotate(108.000000) translate(-364.791281, -364.791281) " cx="364.791281" cy="364.791281" r="289.5"></circle>
            </g>
        </g>
    </g>
</svg>