<svg width="266" height="266" xmlns="http://www.w3.org/2000/svg"><g transform="translate(5 5)" fill="none" fill-rule="evenodd"><circle stroke="#FFF" stroke-width="10" fill="#000" cx="128" cy="128" r="128"/><path d="M141.54 46.18c9.23 2.71 13.28 12.2 19.6 18.56 5.22-1.13 10.56-1.93 15.93-1.81 4.26-.55 8.54-.64 12.79-.04 8.06-.03 16.08 1.78 23.55 4.77 1.33.67 2.67 1.34 4.01 2.01 7.45 4.35 13.58 11.02 17.36 18.78 4.25 8.42 4.66 18.9.01 27.25-3.5 6.26-9.75 10.34-16.2 13.08-9.4 3.92-33.09 9.22-33.09 9.22s5 16.52 0 39.02C182 200.52 166 210.5 158 213s-28.5 5.5-47.5-6-25.75-36.695-26-37.5c-10.16 5.11-22.14 13.43-31.86 19.29-5.02 2.46-10.65 4.4-16.29 3.08-3.26-1.33-5.47-4.32-7.2-7.26-.83-2.48-1.62-5-1.99-7.59.34-8.04 4.09-15.57 9.09-21.73 7.2-8.99 16.51-15.94 25.74-22.69l-.68-2.12c-.91-2.01-1.74-4.05-2.6-6.08-2.26-5.1-3.65-10.53-5.01-15.92-1.41-5.31-2.34-10.87-1.42-16.33 3.14-12.58 14.63-20.49 25.31-26.46.95-.47 1.89-.95 2.84-1.43 2.38-.91 4.76-1.83 7.03-2.99 1.65-.67 3.31-1.3 4.95-2.01 1.35-.56 2.71-1.09 4.1-1.55 1.34-.54 2.7-1 4.03-1.56l1.94-.24c2.13-1.8 4.52-3.25 6.9-4.69 2.01-1 4.02-2 6.02-3.01 1.37-.52 2.74-1.06 4.13-1.53 7.03-2.39 14.86-2.34 22.01-.5Z" fill="#FFF"/><path d="M119.4 55.19c6-2.52 12.95-3.07 19.21-1.41.46.09 1.38.26 1.84.35 1.29.84 2.73 1.5 3.8 2.63 8.91 10.97 17.74 22.02 26.78 32.88-10.51 7.67-21.8 14.3-32.56 21.65-3.46 3.07-8.34 1.16-12.49 1.76-17.18 2.38-34.58 5.25-50.61 12.17-1.97.99-3.9 2.07-5.96 2.87-1.97-2.14-2.48-5.12-3.71-7.68-.99-2.25-1.64-4.62-2.46-6.92-.48-2.01-1.08-3.99-1.54-6.01-1.57-5.5-2.82-11.6-.55-17.09 3.41-5.89 8.7-10.32 14.22-14.15 1.66-1.01 3.29-2.05 4.99-2.99 1.37-.63 2.72-1.28 4.04-1.99 2.35-.97 4.74-1.84 7.01-2.99 1.65-.67 3.33-1.3 4.97-2 1.38-.55 2.77-1.1 4.17-1.6 2.04-.7 4.11-1.3 6.2-1.84.39-.39 1.18-1.16 1.58-1.55 3.55-2.27 7.18-4.43 11.07-6.09" fill="#000"/><path d="M166.96 72.03c6.73.4 13.25-1.72 20-1.04 6.88.86 13.89 1.35 20.5 3.67 2.81 1.03 5.52 2.32 7.97 4.04 6.46 4.28 10.98 11.06 13.36 18.36.36 2.67.95 5.72-.9 8-5.47 8.16-15.32 11.54-24.52 13.44-9.89 2.01-19.95.17-29.84-.63 4.65-3.89 11.39-5.54 14.34-11.18.25-1.2.52-2.4.81-3.59-.39-5.7-4.4-9.83-7.89-13.94-4.58-5.74-9.26-11.39-13.83-17.13M118 123c11.94-2.4 24.11-.25 36.11.22 12.32 1.8 24.55 4.38 36.98 5.25-22.86 4.17-45.67 8.77-68.14 14.76-7.6 2.06-15.18 4.3-22.39 7.51-6.19 2.59-12.16 5.66-17.99 8.98-2.39 1.22-4.69 2.61-6.97 4-3.11 1.75-6.08 3.71-9.12 5.56-5.09 3.22-10.06 6.62-15 10.06-2.25 1.24-4.57 2.34-6.88 3.45-1.72.39-3.39.99-5.14 1.26-4.58-4.03-3.92-10.74-1.25-15.66.26-.5.77-1.49 1.02-1.98 6.54-10.93 17.01-18.77 27.14-26.18 1.01-.66 2.03-1.31 3.03-1.98 14.64-9.11 31.85-12.46 48.6-15.25" fill="#000"/></g></svg>