<?xml version="1.0" encoding="UTF-8"?>
<svg width="266px" height="266px" viewBox="0 0 266 266" version="1.1" xmlns="http://www.w3.org/2000/svg" xmlns:xlink="http://www.w3.org/1999/xlink">
    <!-- Generator: Sketch 49 (51002) - http://www.bohemiancoding.com/sketch -->
    <title>CodeCowboys</title>
    <desc>Created with Sketch.</desc>
    <defs></defs>
    <g id="Page-1" stroke="none" stroke-width="1" fill="none" fill-rule="evenodd">
        <g id="logo_black" transform="translate(5.000000, 5.000000)">
            <circle id="background" stroke="#FFFFFF" stroke-width="10" fill="#000000" cx="128" cy="128" r="128"></circle>
            <g id="head" transform="translate(27.000000, 45.000000)">
                <path d="M114.54,1.18 C123.77,3.89 127.82,13.38 134.14,19.74 C139.36,18.61 144.7,17.81 150.07,17.93 C154.33,17.38 158.61,17.29 162.86,17.89 C170.92,17.86 178.94,19.67 186.41,22.66 C187.74,23.33 189.08,24 190.42,24.67 C197.87,29.02 204,35.69 207.78,43.45 C212.03,51.87 212.44,62.35 207.79,70.7 C204.29,76.96 198.04,81.04 191.59,83.78 C182.19,87.7 158.499996,93.000001 158.499996,93.000001 C158.499996,93.000001 163.499998,109.520006 158.499996,132.020005 C155,155.520004 138.999996,165.500001 130.999996,168.000001 C122.999996,170.500001 102.499996,173.500001 83.4999963,162.000001 C64.4999961,150.500001 57.7492221,125.30518 57.5000002,124.500001 C47.3400002,129.610001 35.36,137.93 25.64,143.79 C20.62,146.25 14.99,148.19 9.35,146.87 C6.09,145.54 3.88,142.55 2.15,139.61 C1.32,137.13 0.53,134.61 0.16,132.02 C0.5,123.98 4.25,116.45 9.25,110.29 C16.45,101.3 25.76,94.35 34.99,87.6 C34.82,87.07 34.48,86.01 34.31,85.48 C33.4,83.47 32.57,81.43 31.71,79.4 C29.45,74.3 28.06,68.87 26.7,63.48 C25.29,58.17 24.36,52.61 25.28,47.15 C28.42,34.57 39.91,26.66 50.59,20.69 C51.54,20.22 52.48,19.74 53.43,19.26 C55.81,18.35 58.19,17.43 60.46,16.27 C62.11,15.6 63.77,14.97 65.41,14.26 C66.76,13.7 68.12,13.17 69.51,12.71 C70.85,12.17 72.21,11.71 73.54,11.15 C74.03,11.09 74.99,10.97 75.48,10.91 C77.61,9.11 80,7.66 82.38,6.22 C84.39,5.22 86.4,4.22 88.4,3.21 C89.77,2.69 91.14,2.15 92.53,1.68 C99.56,-0.71 107.39,-0.66 114.54,1.18 Z" id="Fill-3" fill="#FFFFFF"></path>
                <path d="M92.4,10.19 C98.4,7.67 105.35,7.12 111.61,8.78 C112.07,8.87 112.99,9.04 113.45,9.13 C114.74,9.97 116.18,10.63 117.25,11.76 C126.16,22.73 134.99,33.78 144.03,44.64 C133.52,52.31 122.23,58.94 111.47,66.29 C108.01,69.36 103.13,67.45 98.98,68.05 C81.8,70.43 64.4,73.3 48.37,80.22 C46.4,81.21 44.47,82.29 42.41,83.09 C40.44,80.95 39.93,77.97 38.7,75.41 C37.71,73.16 37.06,70.79 36.24,68.49 C35.76,66.48 35.16,64.5 34.7,62.48 C33.13,56.98 31.88,50.88 34.15,45.39 C37.56,39.5 42.85,35.07 48.37,31.24 C50.03,30.23 51.66,29.19 53.36,28.25 C54.73,27.62 56.08,26.97 57.4,26.26 C59.75,25.29 62.14,24.42 64.41,23.27 C66.06,22.6 67.74,21.97 69.38,21.27 C70.76,20.72 72.15,20.17 73.55,19.67 C75.59,18.97 77.66,18.37 79.75,17.83 C80.14,17.44 80.93,16.67 81.33,16.28 C84.88,14.01 88.51,11.85 92.4,10.19" id="Fill-4" fill="#000000"></path>
                <path d="M139.96,27.03 C146.69,27.43 153.21,25.31 159.96,25.99 C166.84,26.85 173.85,27.34 180.46,29.66 C183.27,30.69 185.98,31.98 188.43,33.7 C194.89,37.98 199.41,44.76 201.79,52.06 C202.15,54.73 202.74,57.78 200.89,60.06 C195.42,68.22 185.57,71.6 176.37,73.5 C166.48,75.51 156.42,73.67 146.53,72.87 C151.18,68.98 157.92,67.33 160.87,61.69 C161.12,60.49 161.39,59.29 161.68,58.1 C161.29,52.4 157.28,48.27 153.79,44.16 C149.21,38.42 144.53,32.77 139.96,27.03" id="Fill-5" fill="#000000"></path>
                <path d="M91,78 C102.94,75.6 115.11,77.75 127.11,78.22 C139.43,80.02 151.66,82.6 164.09,83.47 C141.23,87.64 118.42,92.24 95.95,98.23 C88.35,100.29 80.77,102.53 73.56,105.74 C67.37,108.33 61.4,111.4 55.57,114.72 C53.18,115.94 50.88,117.33 48.6,118.72 C45.49,120.47 42.52,122.43 39.48,124.28 C34.39,127.5 29.42,130.9 24.48,134.34 C22.23,135.58 19.91,136.68 17.6,137.79 C15.88,138.18 14.21,138.78 12.46,139.05 C7.88,135.02 8.54,128.31 11.21,123.39 C11.47,122.89 11.98,121.9 12.23,121.41 C18.77,110.48 29.24,102.64 39.37,95.23 C40.38,94.57 41.4,93.92 42.4,93.25 C57.04,84.14 74.25,80.79 91,78" id="Fill-6" fill="#000000"></path>
            </g>
        </g>
    </g>
</svg>